<svg xmlns="http://www.w3.org/2000/svg" width="27.166" height="24" viewBox="0 0 27.166 24">
  <g id="like" transform="translate(0 -29.836)">
    <g id="Group_60" data-name="Group 60" transform="translate(0 29.836)">
      <path id="Path_65" data-name="Path 65" d="M25.184,32.194a6.842,6.842,0,0,0-10.925.786,10.417,10.417,0,0,0-.676,1.1,10.408,10.408,0,0,0-.676-1.1,6.842,6.842,0,0,0-10.925-.786A8.235,8.235,0,0,0,0,37.663a10.084,10.084,0,0,0,2.777,6.616,61.832,61.832,0,0,0,6.951,6.494c1.051.9,2.138,1.822,3.3,2.835l.035.03a.8.8,0,0,0,1.048,0l.035-.03c1.157-1.013,2.244-1.939,3.3-2.835a61.824,61.824,0,0,0,6.951-6.494,10.084,10.084,0,0,0,2.777-6.616A8.235,8.235,0,0,0,25.184,32.194ZM16.405,49.562c-.906.772-1.839,1.567-2.822,2.422-.983-.855-1.916-1.65-2.823-2.422-5.521-4.7-9.169-7.813-9.169-11.9a6.646,6.646,0,0,1,1.584-4.417,5.313,5.313,0,0,1,4.04-1.818A5.366,5.366,0,0,1,11.608,33.9a9.436,9.436,0,0,1,1.218,2.423.8.8,0,0,0,1.513,0A9.437,9.437,0,0,1,15.558,33.9a5.253,5.253,0,0,1,8.432-.654,6.645,6.645,0,0,1,1.584,4.417C25.574,41.749,21.927,44.857,16.405,49.562Z" transform="translate(0 -29.836)" fill="#e03c31"/>
    </g>
  </g>
</svg>
