<svg xmlns="http://www.w3.org/2000/svg" width="21.778" height="14" viewBox="0 0 21.778 14">
  <g id="email" transform="translate(-2 -14.499)">
    <path id="Path_32" data-name="Path 32" d="M23.466,28.5H2.311A.311.311,0,0,1,2,28.189V14.811a.311.311,0,0,1,.311-.311H23.466a.311.311,0,0,1,.311.311V28.189A.311.311,0,0,1,23.466,28.5ZM2.622,27.878H23.155V15.122H2.622Z" transform="translate(0 -0.001)" fill="#fff"/>
    <path id="Path_33" data-name="Path 33" d="M12.889,22.577a4.148,4.148,0,0,1-2.621-.926L2.11,15.021a.287.287,0,0,1-.034-.418.322.322,0,0,1,.439-.033l8.158,6.63a3.531,3.531,0,0,0,4.435,0l8.158-6.63a.322.322,0,0,1,.439.033.287.287,0,0,1-.034.418L15.51,21.652a4.15,4.15,0,0,1-2.621.926Z" transform="translate(0)" fill="#fff"/>
    <path id="Path_34" data-name="Path 34" d="M52.715,42.839a.3.3,0,0,1-.194-.073L45.112,36.34a.3.3,0,1,1,.389-.448l7.408,6.427a.3.3,0,0,1-.194.521Z" transform="translate(-29.234 -14.34)" fill="#fff"/>
    <path id="Path_35" data-name="Path 35" d="M2.3,42.84a.3.3,0,0,1-.194-.52l7.408-6.427a.3.3,0,0,1,.389.448L2.491,42.767a.3.3,0,0,1-.194.073Z" transform="translate(0 -14.341)" fill="#fff"/>
  </g>
</svg>
