<svg id="linkedin" xmlns="http://www.w3.org/2000/svg" width="19.109" height="18" viewBox="0 0 19.109 18">
  <path id="Path_27" data-name="Path 27" d="M2.317-.668A2.124,2.124,0,0,0,0,1.431a2.107,2.107,0,0,0,2.264,2.1H2.29a2.124,2.124,0,0,0,2.318-2.1,2.116,2.116,0,0,0-2.291-2.1Zm0,0" transform="translate(0 0.668)" fill="#2c2c2c"/>
  <path id="Path_28" data-name="Path 28" d="M8.109,198.313h4.1v12.145h-4.1Zm0,0" transform="translate(-7.867 -192.458)" fill="#2c2c2c"/>
  <path id="Path_29" data-name="Path 29" d="M229,188.625a5.141,5.141,0,0,0-3.692,2.046V188.91h-4.1v12.145h4.1v-6.782a2.729,2.729,0,0,1,.135-.985,2.239,2.239,0,0,1,2.1-1.476c1.482,0,2.075,1.114,2.075,2.746v6.5h4.1v-6.964c0-3.73-2.021-5.466-4.716-5.466Zm0,0" transform="translate(-214.61 -183.055)" fill="#2c2c2c"/>
</svg>
