<svg xmlns="http://www.w3.org/2000/svg" width="18.158" height="18.161" viewBox="0 0 18.158 18.161">
  <g id="link" transform="translate(-0.039 0)">
    <g id="Group_54" data-name="Group 54" transform="translate(0.039 5.838)">
      <g id="Group_53" data-name="Group 53" transform="translate(0)">
        <path id="Path_63" data-name="Path 63" d="M11.118,165.855a4.12,4.12,0,0,0-.711-.572,4.237,4.237,0,0,0-5.281.572l-3.849,3.852A4.237,4.237,0,0,0,7.266,175.7l3.178-3.178a.3.3,0,0,0-.215-.517h-.121a5.094,5.094,0,0,1-1.937-.375.3.3,0,0,0-.33.067l-2.285,2.288a1.817,1.817,0,0,1-2.569-2.569l3.865-3.861a1.816,1.816,0,0,1,2.566,0,1.241,1.241,0,0,0,1.7,0,1.2,1.2,0,0,0,0-1.7Z" transform="translate(-0.039 -164.614)" fill="#2c2c2c"/>
      </g>
    </g>
    <g id="Group_56" data-name="Group 56" transform="translate(6.758 0)">
      <g id="Group_55" data-name="Group 55" transform="translate(0 0)">
        <path id="Path_64" data-name="Path 64" d="M199.7,1.241a4.237,4.237,0,0,0-5.992,0l-3.175,3.171a.3.3,0,0,0,.221.517h.112a5.084,5.084,0,0,1,1.934.378.3.3,0,0,0,.33-.067l2.279-2.276a1.817,1.817,0,1,1,2.569,2.569l-2.839,2.836-.024.027-.993.987a1.816,1.816,0,0,1-2.566,0,1.241,1.241,0,0,0-1.7,0,1.207,1.207,0,0,0,0,1.707,4.2,4.2,0,0,0,1.21.847c.064.03.127.054.191.082s.13.048.194.073.13.045.194.064l.179.048c.121.03.242.054.366.076a4.213,4.213,0,0,0,.451.042h.23l.182-.021c.067,0,.136-.018.215-.018h.1l.209-.03.1-.018.176-.036h.033a4.236,4.236,0,0,0,1.964-1.114L199.7,7.233A4.237,4.237,0,0,0,199.7,1.241Z" transform="translate(-189.502 0)" fill="#2c2c2c"/>
      </g>
    </g>
  </g>
</svg>
