<svg xmlns="http://www.w3.org/2000/svg" width="14.998" height="15" viewBox="0 0 14.998 15">
  <path id="home" d="M14.6,6.524h0L8.476.4A1.381,1.381,0,0,0,6.523.4L.407,6.519.4,6.526A1.38,1.38,0,0,0,1.32,8.878l.043,0h.244v4.5A1.618,1.618,0,0,0,3.222,15H5.616a.439.439,0,0,0,.439-.439V11.03a.738.738,0,0,1,.737-.737H8.205a.738.738,0,0,1,.737.737v3.53A.439.439,0,0,0,9.382,15h2.394a1.618,1.618,0,0,0,1.616-1.616V8.88h.226A1.381,1.381,0,0,0,14.6,6.524Zm0,0" transform="translate(0 0.001)" fill="#bdbdbd"/>
</svg>
