<svg xmlns="http://www.w3.org/2000/svg" width="22" height="22" viewBox="0 0 22 22">
  <g id="telephone" transform="translate(-0.912 0)">
    <path id="Path_36" data-name="Path 36" d="M5.37,14.624a23.416,23.416,0,0,0,7.793,6.081,12.162,12.162,0,0,0,4.361,1.286c.105,0,.206.009.311.009a3.618,3.618,0,0,0,2.8-1.2.1.1,0,0,0,.018-.023,11.766,11.766,0,0,1,.883-.912c.215-.205.435-.419.645-.638a2.2,2.2,0,0,0-.009-3.278l-2.75-2.74a2.23,2.23,0,0,0-1.611-.738,2.3,2.3,0,0,0-1.629.734l-1.638,1.632c-.151-.087-.307-.164-.453-.237a5.665,5.665,0,0,1-.5-.274,17.314,17.314,0,0,1-4.141-3.756,9.94,9.94,0,0,1-1.4-2.225c.43-.387.833-.793,1.222-1.19.137-.141.279-.283.421-.424a2.333,2.333,0,0,0,.76-1.641,2.315,2.315,0,0,0-.76-1.641L8.326,2.092c-.16-.16-.311-.315-.467-.474-.3-.31-.618-.629-.929-.916A2.285,2.285,0,0,0,5.319,0,2.353,2.353,0,0,0,3.69.707l-1.711,1.7A3.5,3.5,0,0,0,.931,4.654,8.408,8.408,0,0,0,1.567,8.3,21.2,21.2,0,0,0,5.37,14.624ZM2.048,4.75A2.407,2.407,0,0,1,2.775,3.2l1.7-1.7a1.234,1.234,0,0,1,.842-.387,1.171,1.171,0,0,1,.824.4c.307.283.595.579.906.893.156.16.316.319.476.483L8.889,4.249a1.236,1.236,0,0,1,.43.852,1.236,1.236,0,0,1-.43.852c-.142.141-.284.287-.426.429-.426.429-.824.834-1.263,1.222l-.023.023a.889.889,0,0,0-.229,1.012c0,.014.009.023.014.036a10.721,10.721,0,0,0,1.606,2.6,18.274,18.274,0,0,0,4.411,4,6.558,6.558,0,0,0,.6.328,5.665,5.665,0,0,1,.5.274l.05.027a.959.959,0,0,0,.444.114.972.972,0,0,0,.682-.31l1.711-1.7a1.213,1.213,0,0,1,.837-.406,1.151,1.151,0,0,1,.81.406l2.759,2.744a1.1,1.1,0,0,1-.014,1.719c-.192.205-.394.4-.609.606a13.15,13.15,0,0,0-.956.989,2.517,2.517,0,0,1-1.963.83c-.078,0-.16,0-.238-.009a11.049,11.049,0,0,1-3.944-1.176,22.245,22.245,0,0,1-7.418-5.789A20.292,20.292,0,0,1,2.624,7.927,7.328,7.328,0,0,1,2.048,4.75Z" fill="#fff"/>
  </g>
</svg>
